<?xml version="1.0" encoding="UTF-8" standalone="no"?>
<svg xmlns:xlink="http://www.w3.org/1999/xlink" xmlns="http://www.w3.org/2000/svg" version="1.1" width="3460.82" height="2200" id="svg2">
<defs>
<linearGradient xlink:href="#linearGradient01link" id="linearGradient01" gradientUnits="userSpaceOnUse" x1="0" y1="200" x2="340" y2="460"/>
<linearGradient id="linearGradient01link">
      <stop offset="0" id="stop00" style="stop-color:#E0E0E0;stop-opacity:1;"/>
      <stop offset="1" id="stop01" style="stop-color:#E0E0E0;stop-opacity:0;"/>
    </linearGradient>
<linearGradient xlink:href="#linearGradient01link" id="linearGradient4254" gradientUnits="userSpaceOnUse" x1="40" y1="160" x2="340" y2="460"/>
</defs>
<g id="paou">
<path d="m 18 520 c 0 -112.21 2 -214.42 2 -324.3 73.6 -11.37 166.21 -22.7 235 -22.7 174.1 0 311 34.81 311 276.67 0 197.9 -112.39 263.19 -267.23 271.34 0.85 48.04 1.19 89.88 1.43 137.31 -40.7 1.79 -85.37 3.69 -128.19 3.69 -34.61 0 -69.25 -0.96 -103.06 -2.01 -25.11 -0.55 -48.94 -20.88 -48.94 -49.99 0 -93.46 -2 -189.47 -2 -290 z  " id="paou-00P100" transform="translate(140.91,100)" style=" fill:#030303;" />
<path d="m 16 520 c 0 -100.4 1.49 -200.73 4 -301 l 0.94 -37.2 37.17 -1.76 c 31.97 -1.51 55.41 -2.29 89.26 -2.29 34.36 0 70.85 1.13 103.31 2.25 26.53 0 49.31 22.58 49.31 49.57 1.98 93.02 4 190.17 4 290.43 0 100.01 -1.53 201.52 -4 300.4 l -0.94 37.8 -37.17 1.76 c -31.97 1.51 -55.41 2.29 -89.26 2.29 -34.55 0 -70.48 -1.11 -103.6 -2.25 -28.13 -0.9 -49.02 -23.06 -49.02 -49.57 -1.98 -93.02 -4 -190.18 -4 -290.43 z  " id="paou-00I101" transform="translate(656.91,100)" style=" fill:#030303;" />
<path d="M -4 519.67 C -4 266 114.07 173 311 173 c 54.84 0 112.33 14.49 158.52 26.58 l -31.3 229.55 -129.68 -8.6 c -5.02 -0.33 -23.55 -4.53 -23.55 99.14 0 72.46 6.3 100.62 23.55 99.47 l 129.95 -8.62 30.02 232.91 c -50.68 9.41 -103.68 18.58 -159.51 18.58 -183.14 0 -313 -72.93 -313 -342.33 z  " id="paou-00C102" transform="translate(936.91,100)" style=" fill:#030303;" />
<path d="m -14.96 295.92 c 0 -36.32 0.98 -77.01 1.91 -114.12 51.43 -2.43 212.72 -4.05 270.43 -4.05 34.23 0 173.35 1.08 207.31 2.25 27.06 0 48.8 22.79 49.3 49.23 0.54 28.43 0.92 56.77 0.92 85.83 0 36.42 -0.93 76.33 -1.85 113.13 -42.08 1.99 -60.61 2.62 -119.59 3.19 0.35 29.84 0.53 56.55 0.53 88.61 0 112.85 -2.17 227.18 -4.94 338.2 -39.15 2.04 -81.3 4.05 -126.43 4.05 -34.37 0 -70.85 -1.13 -103.31 -2.25 -26.54 0 -49.31 -22.58 -49.31 -49.57 -1.98 -93.02 -4 -190.18 -4 -290.43 0 -31.23 0.17 -62.94 0.43 -90.15 -32.37 -0.74 -58.46 -1.41 -71.64 -1.86 -27.7 -0.89 -48.79 -23.05 -48.79 -49.56 -0.6 -28.07 -0.96 -55.78 -0.96 -82.5 z  " id="paou-00T103" transform="translate(1351.91,100)" style=" fill:#030303;" />
<path d="M -3 523.67 C -3 423.6 -1.49 319.27 1.01 219 l 0.93 -37.2 37.17 -1.76 c 31.97 -1.51 55.41 -2.29 89.26 -2.29 34.36 0 70.85 1.13 103.31 2.25 26.53 0 49.31 22.58 49.31 49.57 l 5.27 1.34 0.74 -11.92 0.93 -37.2 37.17 -1.76 c 31.97 -1.51 55.41 -2.29 89.26 -2.29 34.36 0 70.85 1.13 103.31 2.25 26.53 0 49.31 22.58 49.31 49.57 1.98 93.02 4 194.17 4 294.09 0 229.2 -96.43 338.18 -262.01 346.33 -197.27 0 -311.99 -77.16 -311.99 -346.33 z  " id="paou-00U104" transform="translate(1811.91,100)" style=" fill:#030303;" />
<path d="m 18 507 c 0 -111.07 2 -200.23 2 -311.3 74.36 -11.49 175.55 -22.7 245 -22.7 146.73 0 291 17.37 291 213.67 0 66.81 -29.27 123.46 -74.79 162.08 8.21 9.31 13.04 16.47 18.65 26.04 l 0.6 1.03 0.54 1.07 c 49.19 96.84 69.64 178.36 92.82 277.65 -48.43 5.66 -100.53 11.06 -153.8 11.06 -27.75 0 -55.55 -0.97 -82.82 -2.67 -14.69 -0.92 -41.29 -8.56 -50.79 -37.4 -2.1 -6.36 -4.76 -14.46 -6.51 -19.8 0.05 5.57 0.07 9.26 0.09 14.08 l 0.19 38.51 c -41.57 1.78 -85.16 3.46 -127.86 3.46 -34.21 0 -69.97 -0.74 -102.96 -1.77 -27.3 0 -49.37 -23.1 -49.37 -50 0 -93.49 -2 -202.49 -2 -303 z  " id="paou-00R105" transform="translate(2339.91,100)" style=" fill:#030303;" />
<path d="m 16 520 c 0 -112.74 2.14 -226.27 4.94 -338.2 50.64 -2.39 189.93 -4.05 246.43 -4.05 34.23 0 141.61 1.09 175.31 2.25 27.02 0 48.83 22.76 49.3 49.29 0.54 30.54 0.91 58.69 0.91 87.15 0 35.55 -0.94 75.48 -1.85 111.77 l -37.17 1.76 c -8.8 0.42 -22.63 0.77 -36.72 1.03 4.25 7.36 6.65 15.44 6.82 24.24 0.53 27.36 0.87 51.51 0.87 75.95 0 21.62 -0.26 43.45 -0.87 67.83 l -0.31 12.48 c 9.24 0.18 16.07 0.35 21.01 0.52 27.02 0 48.83 22.76 49.3 49.29 0.54 30.54 0.91 58.69 0.91 87.15 0 35.55 -0.94 75.48 -1.85 111.77 -50.41 2.38 -155.31 4.05 -210.43 4.05 -35.24 0 -179.27 -3.09 -213.84 -4.26 -27.69 -0.89 -48.79 -23.05 -48.79 -49.56 -1.98 -93.02 -4 -190.18 -4 -290.43 z  " id="paou-00E106" transform="translate(2865.91,100)" style=" fill:#030303;" />
<path d="m -14.96 295.92 c 0 -36.32 0.98 -77.01 1.91 -114.12 51.43 -2.43 212.72 -4.05 270.43 -4.05 34.23 0 173.35 1.08 207.31 2.25 27.06 0 48.8 22.79 49.3 49.23 0.54 28.43 0.92 56.77 0.92 85.83 0 36.42 -0.93 76.33 -1.85 113.13 -42.08 1.99 -60.61 2.62 -119.59 3.19 0.35 29.84 0.53 56.55 0.53 88.61 0 112.85 -2.17 227.18 -4.94 338.2 -39.15 2.04 -81.3 4.05 -126.43 4.05 -34.37 0 -70.85 -1.13 -103.31 -2.25 -26.54 0 -49.31 -22.58 -49.31 -49.57 -1.98 -93.02 -4 -190.18 -4 -290.43 0 -31.23 0.17 -62.94 0.43 -90.15 -32.37 -0.74 -58.46 -1.41 -71.64 -1.86 -27.7 -0.89 -48.79 -23.05 -48.79 -49.56 -0.6 -28.07 -0.96 -55.78 -0.96 -82.5 z  " id="paou-00T107" transform="translate(682.41,1100)" style=" fill:#030303;" />
<path d="m 16 520 c 0 -100.4 1.49 -200.73 4 -301 l 0.94 -37.2 37.17 -1.76 c 31.97 -1.51 55.41 -2.29 89.26 -2.29 34.36 0 70.85 1.13 103.31 2.25 26.53 0 49.31 22.58 49.31 49.57 1.98 93.02 4 190.17 4 290.43 0 100.01 -1.53 201.52 -4 300.4 l -0.94 37.8 -37.17 1.76 c -31.97 1.51 -55.41 2.29 -89.26 2.29 -34.55 0 -70.48 -1.11 -103.6 -2.25 -28.13 -0.9 -49.02 -23.06 -49.02 -49.57 -1.98 -93.02 -4 -190.18 -4 -290.43 z  " id="paou-00I108" transform="translate(1142.41,1100)" style=" fill:#030303;" />
<path d="m 16 520 c 0 -100.4 1.49 -200.73 4 -301 l 0.94 -37.2 37.17 -1.76 c 31.97 -1.51 55.41 -2.29 89.26 -2.29 34.36 0 70.85 1.13 103.31 2.25 26.53 0 49.31 22.58 49.31 49.57 1.98 93.02 4 190.17 4 290.43 0 30.47 -0.16 62.02 -0.41 89.96 42.09 0.39 91.88 1.17 117.1 2.04 27.02 0 48.83 22.76 49.3 49.29 0.54 30.54 0.92 58.69 0.92 87.15 0 24.11 -0.27 48.44 -0.92 74.57 l -0.93 37.2 -37.17 1.76 c -33.63 1.59 -115.35 2.29 -149.26 2.29 -35.24 0 -179.27 -3.09 -213.84 -4.26 -27.69 -0.89 -48.79 -23.05 -48.79 -49.56 -1.98 -93.02 -4 -190.18 -4 -290.43 z  " id="paou-00L109" transform="translate(1422.41,1100)" style=" fill:#030303;" />
<path d="m 16 520 c 0 -112.74 2.14 -226.27 4.94 -338.2 50.64 -2.39 189.93 -4.05 246.43 -4.05 34.23 0 141.61 1.09 175.31 2.25 27.02 0 48.83 22.76 49.3 49.29 0.54 30.54 0.91 58.69 0.91 87.15 0 35.55 -0.94 75.48 -1.85 111.77 l -37.17 1.76 c -8.8 0.42 -22.63 0.77 -36.72 1.03 4.25 7.36 6.65 15.44 6.82 24.24 0.53 27.36 0.87 51.51 0.87 75.95 0 21.62 -0.26 43.45 -0.87 67.83 l -0.31 12.48 c 9.24 0.18 16.07 0.35 21.01 0.52 27.02 0 48.83 22.76 49.3 49.29 0.54 30.54 0.91 58.69 0.91 87.15 0 35.55 -0.94 75.48 -1.85 111.77 -50.41 2.38 -155.31 4.05 -210.43 4.05 -35.24 0 -179.27 -3.09 -213.84 -4.26 -27.69 -0.89 -48.79 -23.05 -48.79 -49.56 -1.98 -93.02 -4 -190.18 -4 -290.43 z  " id="paou-00E110" transform="translate(1832.41,1100)" style=" fill:#030303;" />
<path d="m -1.19 849.58 36.42 -268.76 45.26 14.22 c 39.24 12.33 77.29 21.81 107.11 27.06 -76.33 -24.58 -182.61 -78.26 -182.61 -235.43 0 -195.31 120.03 -213.67 276 -213.67 61.89 0 133.12 9.08 201.82 22.77 l 36.86 7.35 -34.73 256.55 -48.87 -22 c -9.25 -4.16 -21.97 -9.11 -32.34 -12.67 68.31 32.89 136.26 91.93 136.26 203.66 0 190.23 -144.47 236.33 -285 236.33 -69.49 0 -143.77 -3.89 -215.08 -11.21 z  " id="paou-00S111" transform="translate(2286.41,1100)" style=" fill:#030303;" />
</g>
<g id="paba">
<path d="m 48 500 c 0 -100 2 -192.03 2 -290 66.84 -10.33 139 -17 195 -17 169 0 271 21.52 271 236.67 0 189.63 -100.58 232.16 -267.96 232.33 0.87 46 1.73 92 1.96 138 -29.17 1.25 -59 2 -88 2 -34 0 -67.85 -0.93 -102 -2 -5.21 -0.11 -10 -4.48 -10 -10 0 -94.03 -2 -190 -2 -290 z m 198 -1.95 h 15.81 c 27.18 0 51.2 -6.24 51.2 -65.39 0 -62.14 -4.42 -69.04 -44.2 -69.04 H 246 v 134.43 z  " id="paba-00P100" transform="translate(140.91,100)" style=" fill:#F39412;" />
<path d="m 46 500 c 0 -100 1.5 -200 4 -300 31.75 -1.5 54.13 -2.25 87.38 -2.25 33.96 0 68.67 1.08 102.62 2.25 5.52 0 10 4.48 10 10 2 94 4 190 4 290 0 100 -1.5 200 -4 300 -31.75 1.5 -54.13 2.25 -87.38 2.25 C 128.66 802.25 93.95 801.17 60 800 54.48 800 50 795.52 50 790 48 696 46 600 46 500 z  " id="paba-00I101" transform="translate(656.91,100)" style=" fill:#F39412;" />
<path d="M 26 499.67 C 26 264.52 132 193 301 193 c 41.15 0 73.74 7.3 114 17 l -21.38 156.75 -92.43 -6.13 c -36.47 -2.42 -66.2 20.25 -66.2 139.05 0 119.15 25.78 142.06 66.2 139.38 l 92.43 -6.13 20.38 158.08 c -40.67 7.55 -73.65 11 -115 11 -168 0 -273 -52.31 -273 -302.33 z  " id="paba-00C102" transform="translate(936.91,100)" style=" fill:#F39412;" />
<path d="m 15.04 275.92 c 0 -24.6 0.29 -49.27 0.96 -75.92 31.75 -1.5 198.13 -2.25 231.38 -2.25 33.96 0 172.67 1.08 206.62 2.25 5.52 0 9.89 4.48 10 10 0.54 28.27 0.91 56.35 0.91 85.07 0 24.34 -0.27 49.15 -0.91 74.93 -16.51 0.78 -69.43 1.35 -121.1 1.73 0.66 40.38 1.1 81.73 1.1 128.27 0 100 -1.5 200 -4 300 -31.75 1.5 -54.13 2.25 -87.38 2.25 -33.96 0 -68.67 -1.08 -102.62 -2.25 -5.52 0 -10 -4.48 -10 -10 -2 -94 -4 -190 -4 -290 0 -46.03 0.31 -87.83 0.9 -129.28 -45.61 -0.95 -92.93 -2.1 -110.9 -2.72 -5.52 0 -10 -4.48 -10 -10 -0.61 -28.87 -0.96 -55.43 -0.96 -82.08 z  " id="paba-00T103" transform="translate(1351.91,100)" style=" fill:#F39412;" />
<path d="M 27 503.67 C 27 404 28.5 300 31 200 c 31.75 -1.5 54.13 -2.25 87.38 -2.25 33.96 0 68.67 1.08 102.62 2.25 5.52 0 10 4.48 10 10 2 94 4 224 4 324 0 88.82 13 102 40 102 27 0 38 -13.18 38 -102.33 0 -99.67 1.5 -233.67 4 -333.67 31.75 -1.5 54.13 -2.25 87.38 -2.25 33.96 0 68.67 1.08 102.62 2.25 5.52 0 10 4.48 10 10 2 94 4 194 4 293.67 0 216.46 -82 299.33 -223 306.33 -180.06 0 -271 -54.82 -271 -306.33 z  " id="paba-00U104" transform="translate(1811.91,100)" style=" fill:#F39412;" />
<path d="m 48 487 c 0 -100 2 -177.03 2 -277 66.84 -10.33 149 -17 205 -17 149 0 251 11.52 251 173.67 0 73.61 -40.53 129.53 -106.06 160.38 23.04 8.03 41.94 24.94 55.41 47.95 39.27 77.3 61.65 149.2 79.34 225 -33.52 3.92 -68.93 5.59 -104.66 5.59 -26.81 0 -53.81 -0.94 -80.34 -2.59 -5.63 -0.35 -13.33 -4.04 -15.29 -10 -28.04 -85.09 -55.45 -170.84 -75.73 -239 -4.33 0 -8.7 -0.03 -13.12 -0.06 1.22 81.68 4.06 167.85 4.45 246.06 -29.17 1.25 -58.39 1.77 -87.66 1.77 -34.07 0 -68.19 -0.7 -102.34 -1.77 -5.79 0 -10 -4.48 -10 -10 0 -94.03 -2 -203 -2 -303 z m 197.1 -56 h 16.9 c 31.81 0 53.01 -17.34 53.01 -43.34 0 -30.86 -10 -48.13 -45.59 -48.13 -8.04 0 -16.45 0.38 -23.81 0.83 -0.18 29.28 -0.39 58.21 -0.51 90.64 z  " id="paba-00R105" transform="translate(2339.91,100)" style=" fill:#F39412;" />
<path d="m 46 500 c 0 -100 1.5 -200 4 -300 31.75 -1.5 174.13 -2.25 207.38 -2.25 33.96 0 140.67 1.08 174.62 2.25 5.52 0 9.9 4.48 10 10 0.54 30.43 0.91 58.34 0.91 86.44 0 23.82 -0.27 47.78 -0.91 73.56 -31.75 1.5 -126 2 -159 2 -7.58 0 -21.18 -0.14 -38.11 -0.37 -0.2 17.21 -0.39 34.62 -0.54 52.52 39.87 0.29 94.16 0.97 119.65 1.85 5.52 0 9.89 4.48 10 10 0.53 27.22 0.86 51.1 0.86 75.17 0 21.3 -0.26 42.76 -0.86 66.83 h -129.65 c 0.15 17.58 0.35 34.81 0.54 52 H 257 c 34 0 143.05 0.83 177 2 5.52 0 9.9 4.48 10 10 0.54 30.43 0.91 58.33 0.91 86.43 0 23.82 -0.27 47.79 -0.91 73.57 -31.75 1.5 -138.13 2.25 -171.38 2.25 -33.96 0 -178.67 -3.08 -212.62 -4.25 -5.52 0 -10 -4.48 -10 -10 -2 -94 -4 -190 -4 -290 z  " id="paba-00E106" transform="translate(2865.91,100)" style=" fill:#F39412;" />
<path d="m 15.04 275.92 c 0 -24.6 0.29 -49.27 0.96 -75.92 31.75 -1.5 198.13 -2.25 231.38 -2.25 33.96 0 172.67 1.08 206.62 2.25 5.52 0 9.89 4.48 10 10 0.54 28.27 0.91 56.35 0.91 85.07 0 24.34 -0.27 49.15 -0.91 74.93 -16.51 0.78 -69.43 1.35 -121.1 1.73 0.66 40.38 1.1 81.73 1.1 128.27 0 100 -1.5 200 -4 300 -31.75 1.5 -54.13 2.25 -87.38 2.25 -33.96 0 -68.67 -1.08 -102.62 -2.25 -5.52 0 -10 -4.48 -10 -10 -2 -94 -4 -190 -4 -290 0 -46.03 0.31 -87.83 0.9 -129.28 -45.61 -0.95 -92.93 -2.1 -110.9 -2.72 -5.52 0 -10 -4.48 -10 -10 -0.61 -28.87 -0.96 -55.43 -0.96 -82.08 z  " id="paba-00T107" transform="translate(682.41,1100)" style=" fill:#F39412;" />
<path d="m 46 500 c 0 -100 1.5 -200 4 -300 31.75 -1.5 54.13 -2.25 87.38 -2.25 33.96 0 68.67 1.08 102.62 2.25 5.52 0 10 4.48 10 10 2 94 4 190 4 290 0 100 -1.5 200 -4 300 -31.75 1.5 -54.13 2.25 -87.38 2.25 C 128.66 802.25 93.95 801.17 60 800 54.48 800 50 795.52 50 790 48 696 46 600 46 500 z  " id="paba-00I108" transform="translate(1142.41,1100)" style=" fill:#F39412;" />
<path d="m 46 500 c 0 -100 1.5 -200 4 -300 31.75 -1.5 54.13 -2.25 87.38 -2.25 33.96 0 68.67 1.08 102.62 2.25 5.52 0 10 4.48 10 10 2 94 4 190 4 290 0 44.8 -0.3 87.39 -0.86 129.75 h 4.24 c 33.96 0 118.67 1.08 152.62 2.25 5.52 0 9.9 4.48 10 10 0.54 30.43 0.91 58.33 0.91 86.43 0 23.82 -0.27 47.79 -0.91 73.57 -31.75 1.5 -114.13 2.25 -147.38 2.25 -33.96 0 -178.67 -3.08 -212.62 -4.25 -5.52 0 -10 -4.48 -10 -10 -2 -94 -4 -190 -4 -290 z  " id="paba-00L109" transform="translate(1422.41,1100)" style=" fill:#F39412;" />
<path d="m 46 500 c 0 -100 1.5 -200 4 -300 31.75 -1.5 174.13 -2.25 207.38 -2.25 33.96 0 140.67 1.08 174.62 2.25 5.52 0 9.9 4.48 10 10 0.54 30.43 0.91 58.34 0.91 86.44 0 23.82 -0.27 47.78 -0.91 73.56 -31.75 1.5 -126 2 -159 2 -7.58 0 -21.18 -0.14 -38.11 -0.37 -0.2 17.21 -0.39 34.62 -0.54 52.52 39.87 0.29 94.16 0.97 119.65 1.85 5.52 0 9.89 4.48 10 10 0.53 27.22 0.86 51.1 0.86 75.17 0 21.3 -0.26 42.76 -0.86 66.83 h -129.65 c 0.15 17.58 0.35 34.81 0.54 52 H 257 c 34 0 143.05 0.83 177 2 5.52 0 9.9 4.48 10 10 0.54 30.43 0.91 58.33 0.91 86.43 0 23.82 -0.27 47.79 -0.91 73.57 -31.75 1.5 -138.13 2.25 -171.38 2.25 -33.96 0 -178.67 -3.08 -212.62 -4.25 -5.52 0 -10 -4.48 -10 -10 -2 -94 -4 -190 -4 -290 z  " id="paba-00E110" transform="translate(1832.41,1100)" style=" fill:#F39412;" />
<path d="M 34 794 58.5 613.2 c 70 22 132 34.85 177.31 34.85 37.38 0 53.2 -19.56 53.2 -35.39 0 -20.13 -28.82 -28.28 -67.05 -39.1 -75.26 -21.31 -186.96 -52.99 -186.96 -206.89 0 -162.15 100 -173.67 237 -173.67 58 0 126.16 8.67 193 22 l -22.5 166.2 c -46.77 -21.05 -118 -40.58 -180.31 -40.58 -30.26 0 -50.2 9.54 -50.2 28.04 0 17.4 30.76 26.68 71.81 38.99 82.37 24.71 206.2 61.65 206.2 201.02 0 159.27 -110 196.33 -245 196.33 -68 0 -141.06 -3.83 -211 -11 z  " id="paba-00S111" transform="translate(2286.41,1100)" style=" fill:#F39412;" />
</g>
<g id="pain">
<path d="m 68 500 c 0 -93.86 1.76 -180.97 1.98 -272.75 61.76 -8.83 125.05 -14.25 175.02 -14.25 166.61 0 251 14.67 251 216.67 0 186.59 -93.89 212.17 -268.34 212.35 0.87 43.95 1.81 93.32 2.21 138.75 -23.77 0.82 -45.34 1.23 -67.87 1.23 -30.44 0 -61.81 -0.79 -92.02 -1.7 -0.13 -91.32 -1.98 -183.96 -1.98 -280.3 z m 158 18.01 35.81 0.04 c 34.37 0 71.2 -16.69 71.2 -85.39 0 -57.73 -6.36 -89.1 -64.2 -89.04 L 226 343.66 v 174.35 z  " id="pain-00P100" transform="translate(140.91,100)" style="fill:url(#linearGradient01);" />
<path d="m 66 500 c 0 -93.37 1.35 -188.55 3.54 -280.85 24.43 -1 41.39 -1.4 67.84 -1.4 30.5 0 62.11 0.9 92.83 1.93 1.95 92 3.8 183.7 3.8 280.32 0 93.37 -1.35 188.55 -3.54 280.85 -24.43 1 -41.39 1.4 -67.84 1.4 -30.5 0 -62.11 -0.9 -92.83 -1.93 C 67.85 688.32 66 596.62 66 500 z  " id="pain-00I101" transform="translate(656.91,100)" style="fill:url(#linearGradient01);" />
<path d="M 46 499.67 C 46 273.68 140.84 213 301 213 c 32.78 0 60.52 5.07 91.73 12.27 l -16.4 120.28 -73.82 -4.9 c -54.22 -3.6 -87.52 39.73 -87.52 159.01 0 99.31 23.73 163.57 87.52 159.34 l 73.68 -4.89 15.53 120.46 c -32.47 5.23 -58.8 7.42 -92.72 7.42 -160.59 0 -253 -41.88 -253 -282.33 z  " id="pain-00C102" transform="translate(936.91,100)" style="fill:url(#linearGradient01);" />
<path d="m 35.04 275.92 c 0 -18.47 0.18 -37.41 0.54 -56.49 54.79 -1.13 183.02 -1.69 211.8 -1.69 31.01 0 153.4 0.96 196.8 1.98 0.46 26.29 0.73 49.64 0.73 75.34 0 18.05 -0.17 37.41 -0.49 55.49 -27.93 0.58 -81.74 1.02 -121.84 1.32 0.8 48.68 1.43 93.76 1.43 148.12 0 93.37 -1.35 188.55 -3.54 280.85 -24.43 1 -41.39 1.4 -67.84 1.4 -30.5 0 -62.11 -0.9 -92.83 -1.93 -1.95 -92 -3.8 -183.7 -3.8 -280.32 0 -53.4 0.49 -99.73 1.18 -148.86 -39.39 -0.82 -97.37 -2.14 -121.38 -2.84 -0.5 -25.46 -0.77 -48.71 -0.77 -72.38 z  " id="pain-00T103" transform="translate(1351.91,100)" style="fill:url(#linearGradient01);" />
<path d="m 47 503.67 c 0 -93.07 1.35 -192.09 3.54 -284.52 24.43 -1 41.39 -1.4 67.84 -1.4 30.5 0 62.12 0.9 92.82 1.93 1.95 94 3.8 217.65 3.8 314.32 0 86.51 15.22 122 60 122 45.42 0 58 -36.5 58 -122.33 0 -93.34 1.33 -217.88 3.55 -314.52 24.41 -1 41.39 -1.4 67.83 -1.4 30.5 0 62.11 0.9 92.83 1.93 1.95 92.07 3.8 187.68 3.8 283.99 0 210.68 -75.18 279.68 -203.5 286.33 -172.08 -0.18 -250.5 -43.6 -250.5 -286.33 z  " id="pain-00U104" transform="translate(1811.91,100)" style="fill:url(#linearGradient4254);" />
<path d="m 68 487 c 0 -93.87 1.76 -167.92 1.98 -259.73 63.65 -8.89 134.87 -14.28 185.02 -14.28 150.25 0 231 8.41 231 153.67 0 65.42 -34.85 114.18 -94.58 142.29 l -23.01 10.83 c 0 8.71 0.17 13.71 1 17.8 l 23.94 8.35 c 17.92 6.25 33.19 19.79 44.43 38.67 34.68 68.48 55.79 132.53 72.08 197.8 -26.65 2.26 -52.49 3.19 -79.84 3.19 -25.94 0 -52.49 -0.94 -77.83 -2.48 -27.88 -84.69 -54.41 -167.77 -74.36 -234.83 l -4.25 -14.27 c -16.14 -0.01 -32.26 -0.09 -48.35 -0.19 l 0.3 20.41 c 1.12 75.12 3.6 154.36 4.3 226.5 -23.7 0.75 -44.73 1.03 -67.52 1.03 -30.58 0 -62.21 -0.6 -92.35 -1.48 -0.14 -93.32 -1.98 -196.75 -1.98 -293.29 z m 157.03 -36 h 36.97 c 38.85 0 73.01 -23.68 73.01 -63.34 0 -37.1 -18.8 -68.13 -65.59 -68.13 -15.74 0 -32.1 1.11 -43.69 2 -0.26 39.22 -0.56 84.64 -0.7 129.47 z  " id="pain-00R105" transform="translate(2339.91,100)" style="fill:url(#linearGradient01);" />
<path d="m 66 500 c 0 -93.19 1.36 -188.9 3.53 -280.59 50.23 -1.11 159.34 -1.66 187.84 -1.66 30.76 0 125.74 0.96 164.79 1.97 0.45 26.97 0.74 51.63 0.74 76.72 0 17.69 -0.16 36.03 -0.49 54.21 -40.45 1 -111.74 1.36 -139.42 1.36 -10.16 0 -41.77 -0.42 -57.89 -0.64 -0.36 30.64 -0.69 61.45 -0.93 92.65 39.76 0.29 98.16 0.86 130 1.71 0.44 23.96 0.68 44.22 0.68 65.46 0 15.07 -0.15 31.43 -0.43 46.83 h -130.25 c 0.25 30.88 0.58 61.52 0.93 92.05 9.91 -0.02 22.45 -0.05 31.89 -0.05 30.8 0 128.29 0.76 167.17 1.72 0.45 26.96 0.74 51.63 0.74 76.71 0 17.69 -0.16 36.03 -0.49 54.2 -43.01 1.07 -123.77 1.61 -151.79 1.61 -30.7 0 -158.96 -2.68 -202.83 -3.95 -1.95 -91.94 -3.8 -183.69 -3.8 -280.3 z  " id="pain-00E106" transform="translate(2865.91,100)" style="fill:url(#linearGradient01);" />
<path d="m 35.04 275.92 c 0 -18.47 0.18 -37.41 0.54 -56.49 54.79 -1.13 183.02 -1.69 211.8 -1.69 31.01 0 153.4 0.96 196.8 1.98 0.46 26.29 0.73 49.64 0.73 75.34 0 18.05 -0.17 37.41 -0.49 55.49 -27.93 0.58 -81.74 1.02 -121.84 1.32 0.8 48.68 1.43 93.76 1.43 148.12 0 93.37 -1.35 188.55 -3.54 280.85 -24.43 1 -41.39 1.4 -67.84 1.4 -30.5 0 -62.11 -0.9 -92.83 -1.93 -1.95 -92 -3.8 -183.7 -3.8 -280.32 0 -53.4 0.49 -99.73 1.18 -148.86 -39.39 -0.82 -97.37 -2.14 -121.38 -2.84 -0.5 -25.46 -0.77 -48.71 -0.77 -72.38 z  " id="pain-00T107" transform="translate(682.41,1100)" style="fill:url(#linearGradient01);" />
<path d="m 66 500 c 0 -93.37 1.35 -188.55 3.54 -280.85 24.43 -1 41.39 -1.4 67.84 -1.4 30.5 0 62.11 0.9 92.83 1.93 1.95 92 3.8 183.7 3.8 280.32 0 93.37 -1.35 188.55 -3.54 280.85 -24.43 1 -41.39 1.4 -67.84 1.4 -30.5 0 -62.11 -0.9 -92.83 -1.93 C 67.85 688.32 66 596.62 66 500 z  " id="pain-00I108" transform="translate(1142.41,1100)" style="fill:url(#linearGradient01);" />
<path d="m 66 500 c 0 -93.37 1.35 -188.55 3.54 -280.85 24.43 -1 41.39 -1.4 67.84 -1.4 30.5 0 62.11 0.9 92.83 1.93 1.95 92 3.8 183.7 3.8 280.32 0 44.71 -0.3 87.21 -0.86 129.49 l -0.27 20.28 h 24.5 c 30.75 0 105.84 0.93 142.79 1.94 0.45 27 0.74 51.63 0.74 76.73 0 17.72 -0.16 35.98 -0.49 54.24 -38.11 1.05 -100.11 1.57 -127.79 1.57 -30.7 0 -158.96 -2.68 -202.83 -3.95 -1.95 -91.94 -3.8 -183.69 -3.8 -280.3 z  " id="pain-00L109" transform="translate(1422.41,1100)" style="fill:url(#linearGradient01);" />
<path d="m 66 500 c 0 -93.19 1.36 -188.9 3.53 -280.59 50.23 -1.11 159.34 -1.66 187.84 -1.66 30.76 0 125.74 0.96 164.79 1.97 0.45 26.97 0.74 51.63 0.74 76.72 0 17.69 -0.16 36.03 -0.49 54.21 -40.45 1 -111.74 1.36 -139.42 1.36 -10.16 0 -41.77 -0.42 -57.89 -0.64 -0.36 30.64 -0.69 61.45 -0.93 92.65 39.76 0.29 98.16 0.86 130 1.71 0.44 23.96 0.68 44.22 0.68 65.46 0 15.07 -0.15 31.43 -0.43 46.83 h -130.25 c 0.25 30.88 0.58 61.52 0.93 92.05 9.91 -0.02 22.45 -0.05 31.89 -0.05 30.8 0 128.29 0.76 167.17 1.72 0.45 26.96 0.74 51.63 0.74 76.71 0 17.69 -0.16 36.03 -0.49 54.2 -43.01 1.07 -123.77 1.61 -151.79 1.61 -30.7 0 -158.96 -2.68 -202.83 -3.95 -1.95 -91.94 -3.8 -183.69 -3.8 -280.3 z  " id="pain-00E110" transform="translate(1832.41,1100)" style="fill:url(#linearGradient01);" />
<path d="M 56.61 776.11 75.16 639.17 c 62.84 18.39 116.79 28.88 160.65 28.88 43.96 0 73.2 -24.97 73.2 -55.39 0 -41.59 -50.23 -49.46 -81.6 -58.34 -75.98 -21.51 -172.41 -47.94 -172.41 -187.65 0 -145.77 79.35 -153.67 217 -153.67 50.8 0 110.91 7.03 170.64 18.06 l -16.49 121.8 c -47.2 -17.75 -107.89 -32.25 -163.97 -32.25 -30.45 0 -70.2 9.78 -70.2 48.04 0 40.17 52.63 48.12 86.06 58.14 84.62 25.38 191.95 58.56 191.95 181.86 0 143.92 -92.68 176.33 -225 176.33 -60.42 0 -126.98 -3.23 -188.39 -8.89 z  " id="pain-00S111" transform="translate(2286.41,1100)" style="fill:url(#linearGradient01);" />
</g>
</svg>