<?xml version="1.0" encoding="UTF-8" standalone="no"?>
<svg xmlns:xlink="http://www.w3.org/1999/xlink" xmlns="http://www.w3.org/2000/svg" version="1.1" width="2723.82" height="1200" id="svg2">
<defs>
<linearGradient xlink:href="#linearGradient01link" id="linearGradient01" gradientUnits="userSpaceOnUse" x1="0" y1="200" x2="340" y2="460"/>
<linearGradient id="linearGradient01link">
      <stop offset="0" id="stop00" style="stop-color:#E0E0E0;stop-opacity:1;"/>
      <stop offset="1" id="stop01" style="stop-color:#E0E0E0;stop-opacity:0;"/>
    </linearGradient>
</defs>
<g id="paou">
<path d="m -1.19 849.58 36.42 -268.76 45.26 14.22 c 39.24 12.33 77.29 21.81 107.11 27.06 -76.33 -24.58 -182.61 -78.26 -182.61 -235.43 0 -195.31 120.03 -213.67 276 -213.67 61.89 0 133.12 9.08 201.82 22.77 l 36.86 7.35 -34.73 256.55 -48.87 -22 c -9.25 -4.16 -21.97 -9.11 -32.34 -12.67 68.31 32.89 136.26 91.93 136.26 203.66 0 190.23 -144.47 236.33 -285 236.33 -69.49 0 -143.77 -3.89 -215.08 -11.21 z  " id="paou-00S100" transform="translate(154.91,100)" style=" fill:#030303;" />
<path d="m -14.96 295.92 c 0 -36.32 0.98 -77.01 1.91 -114.12 51.43 -2.43 212.72 -4.05 270.43 -4.05 34.23 0 173.35 1.08 207.31 2.25 27.06 0 48.8 22.79 49.3 49.23 0.54 28.43 0.92 56.77 0.92 85.83 0 36.42 -0.93 76.33 -1.85 113.13 -42.08 1.99 -60.61 2.62 -119.59 3.19 0.35 29.84 0.53 56.55 0.53 88.61 0 112.85 -2.17 227.18 -4.94 338.2 -39.15 2.04 -81.3 4.05 -126.43 4.05 -34.37 0 -70.85 -1.13 -103.31 -2.25 -26.54 0 -49.31 -22.58 -49.31 -49.57 -1.98 -93.02 -4 -190.18 -4 -290.43 0 -31.23 0.17 -62.94 0.43 -90.15 -32.37 -0.74 -58.46 -1.41 -71.64 -1.86 -27.7 -0.89 -48.79 -23.05 -48.79 -49.56 -0.6 -28.07 -0.96 -55.78 -0.96 -82.5 z  " id="paou-00T101" transform="translate(636.91,100)" style=" fill:#030303;" />
<path d="m -13.99 768.33 c 32.07 -196.35 76 -393.93 114.84 -586.83 55.25 -2.59 112.91 -3.75 170.53 -3.75 48.51 0 96.87 0.66 143.41 2.25 24.6 0 46.18 18.74 50.4 42.65 37.49 189.72 84.61 395.4 114.26 591.37 l 6.63 43.83 -44.28 2.11 c -31.71 1.51 -55.03 2.29 -88.88 2.29 -33.98 0 -64.96 -0.07 -100.56 -2.33 -22.34 -1.42 -43.54 -17.22 -48.47 -42.17 -4.37 -22.11 -8.73 -45.75 -12.6 -67.75 h -24.88 c -4.27 26.22 -8.97 52.35 -13.99 77.36 l -6.27 31.14 -31.18 1.46 c -31.96 1.5 -50.78 2.29 -84.64 2.29 -34.36 0 -70.68 -1.13 -102.92 -2.25 -27.75 0 -47.68 -24.52 -47.68 -48.87 0 -8.81 4 -28.84 6.28 -42.8 z  " id="paou-00A102" transform="translate(1074.91,100)" style=" fill:#030303;" />
<path d="m 18 507 c 0 -111.07 2 -200.23 2 -311.3 74.36 -11.49 175.55 -22.7 245 -22.7 146.73 0 291 17.37 291 213.67 0 66.81 -29.27 123.46 -74.79 162.08 8.21 9.31 13.04 16.47 18.65 26.04 l 0.6 1.03 0.54 1.07 c 49.19 96.84 69.64 178.36 92.82 277.65 -48.43 5.66 -100.53 11.06 -153.8 11.06 -27.75 0 -55.55 -0.97 -82.82 -2.67 -14.69 -0.92 -41.29 -8.56 -50.79 -37.4 -2.1 -6.36 -4.76 -14.46 -6.51 -19.8 0.05 5.57 0.07 9.26 0.09 14.08 l 0.19 38.51 c -41.57 1.78 -85.16 3.46 -127.86 3.46 -34.21 0 -69.97 -0.74 -102.96 -1.77 -27.3 0 -49.37 -23.1 -49.37 -50 0 -93.49 -2 -202.49 -2 -303 z  " id="paou-00R103" transform="translate(1594.91,100)" style=" fill:#030303;" />
<path d="m -14.96 295.92 c 0 -36.32 0.98 -77.01 1.91 -114.12 51.43 -2.43 212.72 -4.05 270.43 -4.05 34.23 0 173.35 1.08 207.31 2.25 27.06 0 48.8 22.79 49.3 49.23 0.54 28.43 0.92 56.77 0.92 85.83 0 36.42 -0.93 76.33 -1.85 113.13 -42.08 1.99 -60.61 2.62 -119.59 3.19 0.35 29.84 0.53 56.55 0.53 88.61 0 112.85 -2.17 227.18 -4.94 338.2 -39.15 2.04 -81.3 4.05 -126.43 4.05 -34.37 0 -70.85 -1.13 -103.31 -2.25 -26.54 0 -49.31 -22.58 -49.31 -49.57 -1.98 -93.02 -4 -190.18 -4 -290.43 0 -31.23 0.17 -62.94 0.43 -90.15 -32.37 -0.74 -58.46 -1.41 -71.64 -1.86 -27.7 -0.89 -48.79 -23.05 -48.79 -49.56 -0.6 -28.07 -0.96 -55.78 -0.96 -82.5 z  " id="paou-00T104" transform="translate(2108.91,100)" style=" fill:#030303;" />
</g>
<g id="paba">
<path d="M 34 794 58.5 613.2 c 70 22 132 34.85 177.31 34.85 37.38 0 53.2 -19.56 53.2 -35.39 0 -20.13 -28.82 -28.28 -67.05 -39.1 -75.26 -21.31 -186.96 -52.99 -186.96 -206.89 0 -162.15 100 -173.67 237 -173.67 58 0 126.16 8.67 193 22 l -22.5 166.2 c -46.77 -21.05 -118 -40.58 -180.31 -40.58 -30.26 0 -50.2 9.54 -50.2 28.04 0 17.4 30.76 26.68 71.81 38.99 82.37 24.71 206.2 61.65 206.2 201.02 0 159.27 -110 196.33 -245 196.33 -68 0 -141.06 -3.83 -211 -11 z  " id="paba-00S100" transform="translate(154.91,100)" style=" fill:#F39412;" />
<path d="m 15.04 275.92 c 0 -24.6 0.29 -49.27 0.96 -75.92 31.75 -1.5 198.13 -2.25 231.38 -2.25 33.96 0 172.67 1.08 206.62 2.25 5.52 0 9.89 4.48 10 10 0.54 28.27 0.91 56.35 0.91 85.07 0 24.34 -0.27 49.15 -0.91 74.93 -16.51 0.78 -69.43 1.35 -121.1 1.73 0.66 40.38 1.1 81.73 1.1 128.27 0 100 -1.5 200 -4 300 -31.75 1.5 -54.13 2.25 -87.38 2.25 -33.96 0 -68.67 -1.08 -102.62 -2.25 -5.52 0 -10 -4.48 -10 -10 -2 -94 -4 -190 -4 -290 0 -46.03 0.31 -87.83 0.9 -129.28 -45.61 -0.95 -92.93 -2.1 -110.9 -2.72 -5.52 0 -10 -4.48 -10 -10 -0.61 -28.87 -0.96 -55.43 -0.96 -82.08 z  " id="paba-00T101" transform="translate(636.91,100)" style=" fill:#F39412;" />
<path d="m 9.71 791.75 c 0 -2.32 3.2 -21.18 4.84 -31.29 C 44.17 577.61 86.81 384.22 123.9 200 c 44.62 -2.09 90.67 -2.25 137.48 -2.25 48.61 0 95.15 0.62 142.72 2.25 5.52 0 10.79 4.48 11.76 10 37.83 191.47 84.66 395.83 114.04 590 -31.49 1.5 -53.73 2.25 -86.98 2.25 -33.96 0 -63.86 -0.08 -98.02 -2.25 -5.51 -0.35 -10.67 -4.5 -11.76 -10 -6.52 -32.97 -12.51 -66.35 -18.11 -100 h -92.87 c -5.51 36.96 -11.75 73.68 -19.06 110 -32.01 1.5 -49.52 2.25 -82.77 2.25 -33.96 0 -68.49 -1.08 -102.23 -2.25 -4.92 0 -8.39 -3.56 -8.39 -8.25 z M 239.08 560 h 56.05 C 284.47 485.31 274.73 410.07 264.33 335.66 255.22 409.72 247.77 484.95 239.08 560 z  " id="paba-00A102" transform="translate(1074.91,100)" style=" fill:#F39412;" />
<path d="m 48 487 c 0 -100 2 -177.03 2 -277 66.84 -10.33 149 -17 205 -17 149 0 251 11.52 251 173.67 0 73.61 -40.53 129.53 -106.06 160.38 23.04 8.03 41.94 24.94 55.41 47.95 39.27 77.3 61.65 149.2 79.34 225 -33.52 3.92 -68.93 5.59 -104.66 5.59 -26.81 0 -53.81 -0.94 -80.34 -2.59 -5.63 -0.35 -13.33 -4.04 -15.29 -10 -28.04 -85.09 -55.45 -170.84 -75.73 -239 -4.33 0 -8.7 -0.03 -13.12 -0.06 1.22 81.68 4.06 167.85 4.45 246.06 -29.17 1.25 -58.39 1.77 -87.66 1.77 -34.07 0 -68.19 -0.7 -102.34 -1.77 -5.79 0 -10 -4.48 -10 -10 0 -94.03 -2 -203 -2 -303 z m 197.1 -56 h 16.9 c 31.81 0 53.01 -17.34 53.01 -43.34 0 -30.86 -10 -48.13 -45.59 -48.13 -8.04 0 -16.45 0.38 -23.81 0.83 -0.18 29.28 -0.39 58.21 -0.51 90.64 z  " id="paba-00R103" transform="translate(1594.91,100)" style=" fill:#F39412;" />
<path d="m 15.04 275.92 c 0 -24.6 0.29 -49.27 0.96 -75.92 31.75 -1.5 198.13 -2.25 231.38 -2.25 33.96 0 172.67 1.08 206.62 2.25 5.52 0 9.89 4.48 10 10 0.54 28.27 0.91 56.35 0.91 85.07 0 24.34 -0.27 49.15 -0.91 74.93 -16.51 0.78 -69.43 1.35 -121.1 1.73 0.66 40.38 1.1 81.73 1.1 128.27 0 100 -1.5 200 -4 300 -31.75 1.5 -54.13 2.25 -87.38 2.25 -33.96 0 -68.67 -1.08 -102.62 -2.25 -5.52 0 -10 -4.48 -10 -10 -2 -94 -4 -190 -4 -290 0 -46.03 0.31 -87.83 0.9 -129.28 -45.61 -0.95 -92.93 -2.1 -110.9 -2.72 -5.52 0 -10 -4.48 -10 -10 -0.61 -28.87 -0.96 -55.43 -0.96 -82.08 z  " id="paba-00T104" transform="translate(2108.91,100)" style=" fill:#F39412;" />
</g>
<g id="pain">
<path d="M 56.61 776.11 75.16 639.17 c 62.84 18.39 116.79 28.88 160.65 28.88 43.96 0 73.2 -24.97 73.2 -55.39 0 -41.59 -50.23 -49.46 -81.6 -58.34 -75.98 -21.51 -172.41 -47.94 -172.41 -187.65 0 -145.77 79.35 -153.67 217 -153.67 50.8 0 110.91 7.03 170.64 18.06 l -16.49 121.8 c -47.2 -17.75 -107.89 -32.25 -163.97 -32.25 -30.45 0 -70.2 9.78 -70.2 48.04 0 40.17 52.63 48.12 86.06 58.14 84.62 25.38 191.95 58.56 191.95 181.86 0 143.92 -92.68 176.33 -225 176.33 -60.42 0 -126.98 -3.23 -188.39 -8.89 z  " id="pain-00S100" transform="translate(154.91,100)" style="fill:url(#linearGradient01);" />
<path d="m 35.04 275.92 c 0 -18.47 0.18 -37.41 0.54 -56.49 54.79 -1.13 183.02 -1.69 211.8 -1.69 31.01 0 153.4 0.96 196.8 1.98 0.46 26.29 0.73 49.64 0.73 75.34 0 18.05 -0.17 37.41 -0.49 55.49 -27.93 0.58 -81.74 1.02 -121.84 1.32 0.8 48.68 1.43 93.76 1.43 148.12 0 93.37 -1.35 188.55 -3.54 280.85 -24.43 1 -41.39 1.4 -67.84 1.4 -30.5 0 -62.11 -0.9 -92.83 -1.93 -1.95 -92 -3.8 -183.7 -3.8 -280.32 0 -53.4 0.49 -99.73 1.18 -148.86 -39.39 -0.82 -97.37 -2.14 -121.38 -2.84 -0.5 -25.46 -0.77 -48.71 -0.77 -72.38 z  " id="pain-00T101" transform="translate(636.91,100)" style="fill:url(#linearGradient01);" />
<path d="m 31.6 780.45 c 28.99 -183.12 71.54 -377.03 108.8 -561.12 41.11 -1.5 79.3 -1.58 120.98 -1.58 46.39 0 90.84 0.58 136.04 2.04 36.55 184.26 80.45 377.84 109.31 561.22 -20.95 0.84 -39.14 1.24 -63.81 1.24 -31.99 0 -60.79 -0.14 -91.29 -1.88 -6.07 -31.05 -11.61 -62.1 -16.86 -93.66 l -2.78 -16.71 h -127.05 l -2.54 17.05 c -4.67 31.27 -10.19 64.18 -15.87 93.69 -23.91 1.06 -38.83 1.51 -66.18 1.51 -29.01 0 -60.95 -0.88 -88.73 -1.8 z M 318.18 580 c -11.69 -81.97 -22.57 -164.94 -34.05 -247.1 -0.87 -6.21 -1.63 -10.61 -2.88 -17.36 -5.25 -0.38 -11.26 -0.59 -17.27 -0.59 -6.02 0 -12.04 0.22 -17.29 0.72 -0.5 4.5 -1.45 11.4 -2.21 17.55 -10.06 81.75 -18.35 164.7 -27.85 246.78 h 101.56 z  " id="pain-00A102" transform="translate(1074.91,100)" style="fill:url(#linearGradient01);" />
<path d="m 68 487 c 0 -93.87 1.76 -167.92 1.98 -259.73 63.65 -8.89 134.87 -14.28 185.02 -14.28 150.25 0 231 8.41 231 153.67 0 65.42 -34.85 114.18 -94.58 142.29 l -23.01 10.83 c 0 8.71 0.17 13.71 1 17.8 l 23.94 8.35 c 17.92 6.25 33.19 19.79 44.43 38.67 34.68 68.48 55.79 132.53 72.08 197.8 -26.65 2.26 -52.49 3.19 -79.84 3.19 -25.94 0 -52.49 -0.94 -77.83 -2.48 -27.88 -84.69 -54.41 -167.77 -74.36 -234.83 l -4.25 -14.27 c -16.14 -0.01 -32.26 -0.09 -48.35 -0.19 l 0.3 20.41 c 1.12 75.12 3.6 154.36 4.3 226.5 -23.7 0.75 -44.73 1.03 -67.52 1.03 -30.58 0 -62.21 -0.6 -92.35 -1.48 -0.14 -93.32 -1.98 -196.75 -1.98 -293.29 z m 157.03 -36 h 36.97 c 38.85 0 73.01 -23.68 73.01 -63.34 0 -37.1 -18.8 -68.13 -65.59 -68.13 -15.74 0 -32.1 1.11 -43.69 2 -0.26 39.22 -0.56 84.64 -0.7 129.47 z  " id="pain-00R103" transform="translate(1594.91,100)" style="fill:url(#linearGradient01);" />
<path d="m 35.04 275.92 c 0 -18.47 0.18 -37.41 0.54 -56.49 54.79 -1.13 183.02 -1.69 211.8 -1.69 31.01 0 153.4 0.96 196.8 1.98 0.46 26.29 0.73 49.64 0.73 75.34 0 18.05 -0.17 37.41 -0.49 55.49 -27.93 0.58 -81.74 1.02 -121.84 1.32 0.8 48.68 1.43 93.76 1.43 148.12 0 93.37 -1.35 188.55 -3.54 280.85 -24.43 1 -41.39 1.4 -67.84 1.4 -30.5 0 -62.11 -0.9 -92.83 -1.93 -1.95 -92 -3.8 -183.7 -3.8 -280.32 0 -53.4 0.49 -99.73 1.18 -148.86 -39.39 -0.82 -97.37 -2.14 -121.38 -2.84 -0.5 -25.46 -0.77 -48.71 -0.77 -72.38 z  " id="pain-00T104" transform="translate(2108.91,100)" style="fill:url(#linearGradient01);" />
</g>
</svg>